M48
; DRILL file {KiCad 9.0.7} date 2026-01-29T16:23:44-0600
; FORMAT={-:-/ absolute / metric / decimal}
; #@! TF.CreationDate,2026-01-29T16:23:44-06:00
; #@! TF.GenerationSoftware,Kicad,Pcbnew,9.0.7
; #@! TF.FileFunction,Plated,1,2,PTH
FMAT,2
METRIC
; #@! TA.AperFunction,Plated,PTH,ViaDrill
T1C0.300
; #@! TA.AperFunction,Plated,PTH,ComponentDrill
T2C1.000
; #@! TA.AperFunction,Plated,PTH,ComponentDrill
T3C1.200
%
G90
G05
T1
X148.095Y-110.0
X156.5Y-102.0
X156.5Y-103.5
X156.5Y-105.0
X157.0Y-108.0
X160.5Y-72.0
X160.5Y-74.5
X160.5Y-77.0
T2
X142.38Y-71.84
X142.38Y-74.38
X142.38Y-76.92
X142.38Y-79.46
X142.38Y-82.0
X142.38Y-84.54
X142.38Y-87.08
X142.38Y-89.62
X142.38Y-92.16
X144.92Y-92.16
X147.46Y-92.16
X150.0Y-92.16
X152.54Y-92.16
X155.08Y-92.16
X157.62Y-71.84
X157.62Y-74.38
X157.62Y-76.92
X157.62Y-79.46
X157.62Y-82.0
X157.62Y-84.54
X157.62Y-87.08
X157.62Y-89.62
X157.62Y-92.16
T3
X106.25Y-77.5
X108.75Y-77.5
X108.75Y-132.5
X111.25Y-77.5
X113.75Y-77.5
X113.75Y-132.5
X126.25Y-77.5
X128.75Y-77.5
X128.75Y-132.5
X131.25Y-77.5
X133.75Y-77.5
X133.75Y-132.5
X146.25Y-77.5
X148.75Y-77.5
X148.75Y-132.5
X151.25Y-77.5
X153.75Y-77.5
X153.75Y-132.5
X166.25Y-77.5
X168.75Y-77.5
X168.75Y-132.5
X171.25Y-77.5
X173.75Y-77.5
X173.75Y-132.5
X186.25Y-77.5
X188.75Y-77.5
X188.75Y-132.5
X191.25Y-77.5
X193.75Y-77.5
X193.75Y-132.5
M30
