%TF.GenerationSoftware,KiCad,Pcbnew,9.0.7*%
%TF.CreationDate,2026-01-29T16:23:54-06:00*%
%TF.ProjectId,deej,6465656a-2e6b-4696-9361-645f70636258,rev?*%
%TF.SameCoordinates,Original*%
%TF.FileFunction,Copper,L1,Top*%
%TF.FilePolarity,Positive*%
%FSLAX46Y46*%
G04 Gerber Fmt 4.6, Leading zero omitted, Abs format (unit mm)*
G04 Created by KiCad (PCBNEW 9.0.7) date 2026-01-29 16:23:54*
%MOMM*%
%LPD*%
G01*
G04 APERTURE LIST*
%TA.AperFunction,SMDPad,CuDef*%
%ADD10R,0.800000X1.750000*%
%TD*%
%TA.AperFunction,SMDPad,CuDef*%
%ADD11R,0.700000X1.750000*%
%TD*%
%TA.AperFunction,ComponentPad*%
%ADD12O,2.000000X2.000000*%
%TD*%
%TA.AperFunction,ComponentPad*%
%ADD13O,1.600000X1.600000*%
%TD*%
%TA.AperFunction,ViaPad*%
%ADD14C,0.600000*%
%TD*%
%TA.AperFunction,Conductor*%
%ADD15C,0.200000*%
%TD*%
G04 APERTURE END LIST*
D10*
%TO.P,U1,1,Y4*%
%TO.N,Net-(U1-Y4)*%
X145505000Y-107825000D03*
D11*
%TO.P,U1,2,Y6*%
%TO.N,unconnected-(U1-Y6-Pad2)*%
X146825000Y-107825000D03*
%TO.P,U1,3,Z*%
%TO.N,Net-(U1-Z)*%
X148095000Y-107825000D03*
%TO.P,U1,4,Y7*%
%TO.N,unconnected-(U1-Y7-Pad4)*%
X149365000Y-107825000D03*
%TO.P,U1,5,Y5*%
%TO.N,unconnected-(U1-Y5-Pad5)*%
X150635000Y-107825000D03*
%TO.P,U1,6,~{E}*%
%TO.N,unconnected-(U1-~{E}-Pad6)*%
X151905000Y-107825000D03*
%TO.P,U1,7,VEE*%
%TO.N,unconnected-(U1-VEE-Pad7)*%
X153175000Y-107825000D03*
D10*
%TO.P,U1,8,GND*%
%TO.N,GND*%
X154495000Y-107825000D03*
%TO.P,U1,9,S2*%
%TO.N,Net-(U1-S2)*%
X154495000Y-102175000D03*
D11*
%TO.P,U1,10,S1*%
%TO.N,Net-(U1-S1)*%
X153175000Y-102175000D03*
%TO.P,U1,11,S0*%
%TO.N,Net-(U1-S0)*%
X151905000Y-102175000D03*
%TO.P,U1,12,Y3*%
%TO.N,Net-(U1-Y3)*%
X150635000Y-102175000D03*
%TO.P,U1,13,Y0*%
%TO.N,Net-(U1-Y0)*%
X149365000Y-102175000D03*
%TO.P,U1,14,Y1*%
%TO.N,Net-(U1-Y1)*%
X148095000Y-102175000D03*
%TO.P,U1,15,Y2*%
%TO.N,Net-(U1-Y2)*%
X146825000Y-102175000D03*
D10*
%TO.P,U1,16,VCC*%
%TO.N,VCC*%
X145505000Y-102175000D03*
%TD*%
D12*
%TO.P,U2,1,OUT1*%
%TO.N,Net-(U1-Y0)*%
X186249900Y-77500200D03*
%TO.P,U2,2,VCC1*%
%TO.N,VCC*%
X188750100Y-77500200D03*
%TO.P,U2,3,GND1*%
%TO.N,GND*%
X188750100Y-132500100D03*
%TO.P,U2,4,OUT2*%
%TO.N,Net-(U1-Y0)*%
X191249900Y-77500200D03*
%TO.P,U2,5,VCC2*%
%TO.N,VCC*%
X193750100Y-77500200D03*
%TO.P,U2,6,GND2*%
%TO.N,GND*%
X193750100Y-132500100D03*
%TD*%
D13*
%TO.P,U8,1,GP0*%
%TO.N,Net-(U1-S0)*%
X157620000Y-71840000D03*
%TO.P,U8,2,GP1*%
%TO.N,Net-(U1-S1)*%
X157620000Y-74380000D03*
%TO.P,U8,3,GP2*%
%TO.N,Net-(U1-S2)*%
X157620000Y-76920000D03*
%TO.P,U8,4,GP3*%
%TO.N,unconnected-(U8-GP3-Pad4)*%
X157620000Y-79460000D03*
%TO.P,U8,5,GP4*%
%TO.N,unconnected-(U8-GP4-Pad5)*%
X157620000Y-82000000D03*
%TO.P,U8,6,GP5*%
%TO.N,unconnected-(U8-GP5-Pad6)*%
X157620000Y-84540000D03*
%TO.P,U8,7,GP6*%
%TO.N,unconnected-(U8-GP6-Pad7)*%
X157620000Y-87080000D03*
%TO.P,U8,8,GP7*%
%TO.N,unconnected-(U8-GP7-Pad8)*%
X157620000Y-89620000D03*
%TO.P,U8,9,GP8*%
%TO.N,unconnected-(U8-GP8-Pad9)*%
X157620000Y-92160000D03*
%TO.P,U8,10,GP9*%
%TO.N,unconnected-(U8-GP9-Pad10)*%
X155080000Y-92160000D03*
%TO.P,U8,11,GP10*%
%TO.N,unconnected-(U8-GP10-Pad11)*%
X152540000Y-92160000D03*
%TO.P,U8,12,GP11*%
%TO.N,unconnected-(U8-GP11-Pad12)*%
X150000000Y-92160000D03*
%TO.P,U8,13,GP12*%
%TO.N,unconnected-(U8-GP12-Pad13)*%
X147460000Y-92160000D03*
%TO.P,U8,14,GP13*%
%TO.N,unconnected-(U8-GP13-Pad14)*%
X144920000Y-92160000D03*
%TO.P,U8,15,GP14*%
%TO.N,unconnected-(U8-GP14-Pad15)*%
X142380000Y-92160000D03*
%TO.P,U8,16,GP15*%
%TO.N,unconnected-(U8-GP15-Pad16)*%
X142380000Y-89620000D03*
%TO.P,U8,17,GP26*%
%TO.N,Net-(U1-Z)*%
X142380000Y-87080000D03*
%TO.P,U8,18,GP27*%
%TO.N,unconnected-(U8-GP27-Pad18)*%
X142380000Y-84540000D03*
%TO.P,U8,19,GP28*%
%TO.N,unconnected-(U8-GP28-Pad19)*%
X142380000Y-82000000D03*
%TO.P,U8,20,GP29*%
%TO.N,unconnected-(U8-GP29-Pad20)*%
X142380000Y-79460000D03*
%TO.P,U8,21,3V3*%
%TO.N,VCC*%
X142380000Y-76920000D03*
%TO.P,U8,22,GND*%
%TO.N,GND*%
X142380000Y-74380000D03*
%TO.P,U8,23,5V*%
%TO.N,unconnected-(U8-5V-Pad23)*%
X142380000Y-71840000D03*
%TD*%
D12*
%TO.P,U3,1,OUT1*%
%TO.N,Net-(U1-Y1)*%
X166249900Y-77500200D03*
%TO.P,U3,2,VCC1*%
%TO.N,VCC*%
X168750100Y-77500200D03*
%TO.P,U3,3,GND1*%
%TO.N,GND*%
X168750100Y-132500100D03*
%TO.P,U3,4,OUT2*%
%TO.N,Net-(U1-Y1)*%
X171249900Y-77500200D03*
%TO.P,U3,5,VCC2*%
%TO.N,VCC*%
X173750100Y-77500200D03*
%TO.P,U3,6,GND2*%
%TO.N,GND*%
X173750100Y-132500100D03*
%TD*%
%TO.P,U5,1,OUT1*%
%TO.N,Net-(U1-Y3)*%
X126249900Y-77500200D03*
%TO.P,U5,2,VCC1*%
%TO.N,VCC*%
X128750100Y-77500200D03*
%TO.P,U5,3,GND1*%
%TO.N,GND*%
X128750100Y-132500100D03*
%TO.P,U5,4,OUT2*%
%TO.N,Net-(U1-Y3)*%
X131249900Y-77500200D03*
%TO.P,U5,5,VCC2*%
%TO.N,VCC*%
X133750100Y-77500200D03*
%TO.P,U5,6,GND2*%
%TO.N,GND*%
X133750100Y-132500100D03*
%TD*%
%TO.P,U4,1,OUT1*%
%TO.N,Net-(U1-Y2)*%
X146249900Y-77500200D03*
%TO.P,U4,2,VCC1*%
%TO.N,VCC*%
X148750100Y-77500200D03*
%TO.P,U4,3,GND1*%
%TO.N,GND*%
X148750100Y-132500100D03*
%TO.P,U4,4,OUT2*%
%TO.N,Net-(U1-Y2)*%
X151249900Y-77500200D03*
%TO.P,U4,5,VCC2*%
%TO.N,VCC*%
X153750100Y-77500200D03*
%TO.P,U4,6,GND2*%
%TO.N,GND*%
X153750100Y-132500100D03*
%TD*%
%TO.P,U6,1,OUT1*%
%TO.N,Net-(U1-Y4)*%
X106249900Y-77500200D03*
%TO.P,U6,2,VCC1*%
%TO.N,VCC*%
X108750100Y-77500200D03*
%TO.P,U6,3,GND1*%
%TO.N,GND*%
X108750100Y-132500100D03*
%TO.P,U6,4,OUT2*%
%TO.N,Net-(U1-Y4)*%
X111249900Y-77500200D03*
%TO.P,U6,5,VCC2*%
%TO.N,VCC*%
X113750100Y-77500200D03*
%TO.P,U6,6,GND2*%
%TO.N,GND*%
X113750100Y-132500100D03*
%TD*%
D14*
%TO.N,GND*%
X157000000Y-108000000D03*
%TO.N,Net-(U1-S2)*%
X156500000Y-102000000D03*
X160500000Y-77000000D03*
%TO.N,Net-(U1-S0)*%
X160500000Y-72000000D03*
X156500000Y-105000000D03*
%TO.N,Net-(U1-S1)*%
X160500000Y-74500000D03*
X156500000Y-103500000D03*
%TO.N,Net-(U1-Z)*%
X148095000Y-110000000D03*
%TD*%
D15*
%TO.N,GND*%
X154495000Y-107825000D02*
X156825000Y-107825000D01*
X156825000Y-107825000D02*
X157000000Y-108000000D01*
%TO.N,VCC*%
X153000000Y-76000000D02*
X153750100Y-76750100D01*
X133750100Y-75750100D02*
X133750100Y-77500200D01*
X168750100Y-75749900D02*
X169000000Y-75500000D01*
X174000200Y-75500000D02*
X188500200Y-75500000D01*
X148750100Y-76750100D02*
X148750100Y-77500200D01*
X142380000Y-76920000D02*
X144080000Y-76920000D01*
X193750100Y-75750100D02*
X193500000Y-75500000D01*
X148750100Y-77500200D02*
X148750100Y-76749900D01*
X145505000Y-102175000D02*
X135500000Y-92170000D01*
X148000000Y-76000000D02*
X148750100Y-76750100D01*
X156809900Y-80560000D02*
X153750100Y-77500200D01*
X193500000Y-75500000D02*
X189000000Y-75500000D01*
X128750100Y-75750100D02*
X129000200Y-75500000D01*
X114000200Y-75500000D02*
X128500000Y-75500000D01*
X148750100Y-76749900D02*
X149500000Y-76000000D01*
X188500200Y-75500000D02*
X188750100Y-75749900D01*
X169000000Y-75500000D02*
X173500000Y-75500000D01*
X108750100Y-77500200D02*
X108750100Y-75749900D01*
X128500000Y-75500000D02*
X128750100Y-75750100D01*
X149500000Y-76000000D02*
X153000000Y-76000000D01*
X173500000Y-75500000D02*
X173750100Y-75750100D01*
X113500000Y-75500000D02*
X113750100Y-75750100D01*
X193750100Y-77500200D02*
X193750100Y-75750100D01*
X135500000Y-92170000D02*
X135500000Y-83800000D01*
X133750100Y-77500200D02*
X141799800Y-77500200D01*
X164500000Y-75500000D02*
X159440000Y-80560000D01*
X188750100Y-75749900D02*
X188750100Y-77500200D01*
X141799800Y-77500200D02*
X142380000Y-76920000D01*
X173750100Y-75750100D02*
X174000200Y-75500000D01*
X133500000Y-75500000D02*
X133750100Y-75750100D01*
X173750100Y-75750100D02*
X173750100Y-77500200D01*
X168500200Y-75500000D02*
X164500000Y-75500000D01*
X113750100Y-75750100D02*
X113750100Y-77500200D01*
X168750100Y-77500200D02*
X168750100Y-75749900D01*
X189000000Y-75500000D02*
X188750100Y-75749900D01*
X128750100Y-75750100D02*
X128750100Y-77500200D01*
X113750100Y-75750100D02*
X114000200Y-75500000D01*
X145000000Y-76000000D02*
X148000000Y-76000000D01*
X159440000Y-80560000D02*
X156809900Y-80560000D01*
X109000000Y-75500000D02*
X113500000Y-75500000D01*
X108750100Y-75749900D02*
X109000000Y-75500000D01*
X168750100Y-75749900D02*
X168500200Y-75500000D01*
X153750100Y-76750100D02*
X153750100Y-77500200D01*
X129000200Y-75500000D02*
X133500000Y-75500000D01*
X144080000Y-76920000D02*
X145000000Y-76000000D01*
X135500000Y-83800000D02*
X142380000Y-76920000D01*
%TO.N,Net-(U1-S2)*%
X157620000Y-76920000D02*
X160420000Y-76920000D01*
X160420000Y-76920000D02*
X160500000Y-77000000D01*
X156325000Y-102175000D02*
X154495000Y-102175000D01*
X156500000Y-102000000D02*
X156325000Y-102175000D01*
%TO.N,Net-(U1-Y0)*%
X151000000Y-97500000D02*
X149365000Y-99135000D01*
X191000000Y-79500000D02*
X186500000Y-79500000D01*
X186249900Y-77500200D02*
X178499800Y-77500200D01*
X186500000Y-79500000D02*
X186249900Y-79249900D01*
X158500000Y-97500000D02*
X151000000Y-97500000D01*
X178499800Y-77500200D02*
X158500000Y-97500000D01*
X191249900Y-77500200D02*
X191249900Y-79250100D01*
X191249900Y-79250100D02*
X191000000Y-79500000D01*
X149365000Y-99135000D02*
X149365000Y-102175000D01*
X186249900Y-79249900D02*
X186249900Y-77500200D01*
%TO.N,Net-(U1-Y4)*%
X106249900Y-77500200D02*
X106249900Y-79249900D01*
X106500000Y-79500000D02*
X111000000Y-79500000D01*
X111000000Y-79500000D02*
X111249900Y-79250100D01*
X111249900Y-77500200D02*
X141574700Y-107825000D01*
X106249900Y-79249900D02*
X106500000Y-79500000D01*
X111249900Y-79250100D02*
X111249900Y-77500200D01*
X141574700Y-107825000D02*
X145505000Y-107825000D01*
%TO.N,Net-(U1-Y3)*%
X132500000Y-92000000D02*
X144500000Y-104000000D01*
X132500000Y-78750300D02*
X132500000Y-92000000D01*
X126249900Y-79249900D02*
X126500000Y-79500000D01*
X131249900Y-77500200D02*
X132500000Y-78750300D01*
X144500000Y-104000000D02*
X150000000Y-104000000D01*
X126500000Y-79500000D02*
X131000000Y-79500000D01*
X131249900Y-79250100D02*
X131249900Y-77500200D01*
X126249900Y-77500200D02*
X126249900Y-79249900D01*
X150635000Y-103365000D02*
X150635000Y-102175000D01*
X150000000Y-104000000D02*
X150635000Y-103365000D01*
X131000000Y-79500000D02*
X131249900Y-79250100D01*
%TO.N,Net-(U1-Y1)*%
X158000000Y-96500000D02*
X150500000Y-96500000D01*
X166249900Y-79249900D02*
X166249900Y-77500200D01*
X171000000Y-79500000D02*
X166500000Y-79500000D01*
X160000000Y-94500000D02*
X158000000Y-96500000D01*
X166249900Y-77500200D02*
X160000000Y-83750100D01*
X171249900Y-77500200D02*
X171249900Y-79250100D01*
X150500000Y-96500000D02*
X148095000Y-98905000D01*
X160000000Y-83750100D02*
X160000000Y-94500000D01*
X148095000Y-98905000D02*
X148095000Y-102175000D01*
X166500000Y-79500000D02*
X166249900Y-79249900D01*
X171249900Y-79250100D02*
X171000000Y-79500000D01*
%TO.N,Net-(U1-Y2)*%
X151249900Y-79250100D02*
X151000000Y-79500000D01*
X145000000Y-79500000D02*
X145000000Y-78750100D01*
X147500000Y-79500000D02*
X146249900Y-78249900D01*
X151249900Y-77500200D02*
X151249900Y-79250100D01*
X146825000Y-102175000D02*
X146825000Y-96175000D01*
X148560000Y-94440000D02*
X148560000Y-83060000D01*
X145000000Y-78750100D02*
X146249900Y-77500200D01*
X148560000Y-83060000D02*
X145000000Y-79500000D01*
X146825000Y-96175000D02*
X148560000Y-94440000D01*
X151000000Y-79500000D02*
X147500000Y-79500000D01*
X146249900Y-78249900D02*
X146249900Y-77500200D01*
%TO.N,Net-(U1-S0)*%
X160340000Y-71840000D02*
X160500000Y-72000000D01*
X157620000Y-71840000D02*
X160340000Y-71840000D01*
X154205000Y-105000000D02*
X151905000Y-102700000D01*
X156500000Y-105000000D02*
X154205000Y-105000000D01*
X151905000Y-102700000D02*
X151905000Y-102175000D01*
%TO.N,Net-(U1-S1)*%
X157620000Y-74380000D02*
X160380000Y-74380000D01*
X160380000Y-74380000D02*
X160500000Y-74500000D01*
X156500000Y-103500000D02*
X153975000Y-103500000D01*
X153975000Y-103500000D02*
X153175000Y-102700000D01*
X153175000Y-102700000D02*
X153175000Y-102175000D01*
%TO.N,Net-(U1-Z)*%
X148095000Y-107300000D02*
X148095000Y-107825000D01*
X148095000Y-110000000D02*
X148095000Y-107825000D01*
%TD*%
M02*
